<?xml version="1.0" encoding="UTF-8" standalone="no"?>
<!-- Created with Inkscape (http://www.inkscape.org/) -->

<svg
   width="300"
   height="300"
   viewBox="0 0 300 300"
   version="1.1"
   id="svg1"
   xml:space="preserve"
   xmlns:inkscape="http://www.inkscape.org/namespaces/inkscape"
   xmlns:sodipodi="http://sodipodi.sourceforge.net/DTD/sodipodi-0.dtd"
   xmlns="http://www.w3.org/2000/svg"
   xmlns:svg="http://www.w3.org/2000/svg"><sodipodi:namedview
     id="namedview1"
     pagecolor="#505050"
     bordercolor="#eeeeee"
     borderopacity="1"
     inkscape:showpageshadow="0"
     inkscape:pageopacity="0"
     inkscape:pagecheckerboard="0"
     inkscape:deskcolor="#505050"
     inkscape:document-units="px"
     inkscape:zoom="1.94"
     inkscape:cx="170.10309"
     inkscape:cy="124.74227"
     inkscape:window-width="1366"
     inkscape:window-height="768"
     inkscape:window-x="0"
     inkscape:window-y="0"
     inkscape:window-maximized="1"
     inkscape:current-layer="layer1"><inkscape:page
       x="0"
       y="0"
       width="300"
       height="300"
       id="page2"
       margin="0"
       bleed="0" /></sodipodi:namedview><defs
     id="defs1" /><g
     inkscape:label="Layer 1"
     inkscape:groupmode="layer"
     id="layer1"><path
       style="fill:#ffffff;stroke-width:3.325"
       d="m 126.38531,192.9607 88.19563,0.0699 0.10576,18.32976 -25.72085,25.75306 -106.591555,0.0316 V 93.009011 c 0,0 2.032922,-16.978093 8.862818,-23.16366 6.829897,-6.185567 14.884017,-8.891753 18.878867,-9.149485 3.99484,-0.257732 104.51031,0 104.51031,0 v 72.114454 c 0,0 -1.0363,7.65425 -7.77933,11.11688 -6.74303,3.46264 -12.77479,4.7197 -16.06088,4.84856 -3.28608,0.12887 -38.20876,0.0644 -38.20876,0.0644 l 18.07345,-18.07346 -0.0322,-26.19201 -44.09565,0.17001 z"
       id="path1" /></g></svg>
